<svg xmlns="http://www.w3.org/2000/svg" version="1.1" xmlns:xlink="http://www.w3.org/1999/xlink" xmlns:svgjs="http://svgjs.dev/svgjs" width="2590" height="1440" preserveAspectRatio="none" viewBox="0 0 2590 1440"><g mask="url(&quot;#SvgjsMask1187&quot;)" fill="none"><rect width="2590" height="1440" x="0" y="0" fill="url(&quot;#SvgjsLinearGradient1188&quot;)"></rect><path d="M163 1440L1603 0L2095 0L655 1440z" fill="url(&quot;#SvgjsLinearGradient1189&quot;)"></path><path d="M937.7 1440L2377.7 0L3186.2 0L1746.2 1440z" fill="url(&quot;#SvgjsLinearGradient1189&quot;)"></path><path d="M2574 1440L1134 0L-93 0L1347 1440z" fill="url(&quot;#SvgjsLinearGradient1190&quot;)"></path><path d="M1687.3 1440L247.29999999999995 0L-883.7 0L556.3 1440z" fill="url(&quot;#SvgjsLinearGradient1190&quot;)"></path><path d="M1165.842166150746 1440L2590 15.842166150745925L2590 1440z" fill="url(&quot;#SvgjsLinearGradient1189&quot;)"></path><path d="M0 1440L1424.157833849254 1440L 0 15.842166150745925z" fill="url(&quot;#SvgjsLinearGradient1190&quot;)"></path></g><defs><mask id="SvgjsMask1187"><rect width="2590" height="1440" fill="#ffffff"></rect></mask><linearGradient x1="11.1%" y1="-19.97%" x2="88.9%" y2="119.97%" gradientUnits="userSpaceOnUse" id="SvgjsLinearGradient1188"><stop stop-color="#0e2a47" offset="0"></stop><stop stop-color="rgba(88, 179, 136, 1)" offset="1"></stop></linearGradient><linearGradient x1="0%" y1="100%" x2="100%" y2="0%" id="SvgjsLinearGradient1189"><stop stop-color="rgba(15, 70, 185, 0.2)" offset="0"></stop><stop stop-opacity="0" stop-color="rgba(15, 70, 185, 0.2)" offset="0.66"></stop></linearGradient><linearGradient x1="100%" y1="100%" x2="0%" y2="0%" id="SvgjsLinearGradient1190"><stop stop-color="rgba(15, 70, 185, 0.2)" offset="0"></stop><stop stop-opacity="0" stop-color="rgba(15, 70, 185, 0.2)" offset="0.66"></stop></linearGradient></defs></svg>